0, 0, Header, 1, 2, 480
1, 0, Start_track
1, 0, SMPTE_offset, 96, 0, 3, 0, 0
1, 0, Time_signature, 3, 3, 12, 8
1, 0, Key_signature, 0, "major"
1, 90242, End_track
2, 0, Start_track
2, 0, MIDI_port, 0
2, 0, Program_c, 0, 0
2, 0, Control_c, 0, 7, 100
2, 0, Control_c, 0, 91, 127
2, 480, Note_on_c, 0, 76, 36
2, 600, Note_on_c, 0, 76, 0
2, 600, Note_on_c, 0, 75, 33
2, 720, Note_on_c, 0, 75, 0
2, 720, Note_on_c, 0, 76, 39
2, 840, Note_on_c, 0, 76, 0
2, 840, Note_on_c, 0, 75, 36
2, 960, Note_on_c, 0, 75, 0
2, 960, Note_on_c, 0, 76, 45
2, 1080, Note_on_c, 0, 76, 0
2, 1080, Note_on_c, 0, 71, 40
2, 1200, Note_on_c, 0, 71, 0
2, 1200, Note_on_c, 0, 74, 47
2, 1320, Note_on_c, 0, 74, 0
2, 1320, Note_on_c, 0, 72, 39
2, 1440, Note_on_c, 0, 72, 0
2, 1440, Note_on_c, 0, 69, 51
2, 1680, Note_on_c, 0, 69, 0
2, 1800, Note_on_c, 0, 60, 34
2, 1920, Note_on_c, 0, 60, 0
2, 1920, Note_on_c, 0, 64, 38
2, 2040, Note_on_c, 0, 64, 0
2, 2040, Note_on_c, 0, 69, 42
2, 2160, Note_on_c, 0, 69, 0
2, 2160, Note_on_c, 0, 71, 46
2, 2400, Note_on_c, 0, 71, 0
2, 2520, Note_on_c, 0, 64, 36
2, 2640, Note_on_c, 0, 64, 0
2, 2640, Note_on_c, 0, 68, 39
2, 2760, Note_on_c, 0, 68, 0
2, 2760, Note_on_c, 0, 71, 42
2, 2880, Note_on_c, 0, 71, 0
2, 2880, Note_on_c, 0, 72, 45
2, 3120, Note_on_c, 0, 72, 0
2, 3240, Note_on_c, 0, 64, 35
2, 3360, Note_on_c, 0, 64, 0
2, 3360, Note_on_c, 0, 76, 38
2, 3480, Note_on_c, 0, 76, 0
2, 3480, Note_on_c, 0, 75, 34
2, 3600, Note_on_c, 0, 75, 0
2, 3600, Note_on_c, 0, 76, 41
2, 3720, Note_on_c, 0, 76, 0
2, 3720, Note_on_c, 0, 75, 37
2, 3840, Note_on_c, 0, 75, 0
2, 3840, Note_on_c, 0, 76, 46
2, 3960, Note_on_c, 0, 76, 0
2, 3960, Note_on_c, 0, 71, 39
2, 4080, Note_on_c, 0, 71, 0
2, 4080, Note_on_c, 0, 74, 48
2, 4200, Note_on_c, 0, 74, 0
2, 4200, Note_on_c, 0, 72, 39
2, 4320, Note_on_c, 0, 72, 0
2, 4320, Note_on_c, 0, 69, 48
2, 4560, Note_on_c, 0, 69, 0
2, 4680, Note_on_c, 0, 60, 34
2, 4800, Note_on_c, 0, 60, 0
2, 4800, Note_on_c, 0, 64, 37
2, 4920, Note_on_c, 0, 64, 0
2, 4920, Note_on_c, 0, 69, 41
2, 5040, Note_on_c, 0, 69, 0
2, 5040, Note_on_c, 0, 71, 45
2, 5280, Note_on_c, 0, 71, 0
2, 5400, Note_on_c, 0, 64, 37
2, 5520, Note_on_c, 0, 64, 0
2, 5520, Note_on_c, 0, 72, 40
2, 5640, Note_on_c, 0, 72, 0
2, 5640, Note_on_c, 0, 71, 38
2, 5760, Note_on_c, 0, 71, 0
2, 5760, Note_on_c, 0, 69, 40
2, 6000, Note_on_c, 0, 69, 0
2, 6240, Note_on_c, 0, 76, 36
2, 6360, Note_on_c, 0, 76, 0
2, 6360, Note_on_c, 0, 75, 33
2, 6480, Note_on_c, 0, 75, 0
2, 6480, Note_on_c, 0, 76, 39
2, 6600, Note_on_c, 0, 76, 0
2, 6600, Note_on_c, 0, 75, 36
2, 6720, Note_on_c, 0, 75, 0
2, 6720, Note_on_c, 0, 76, 45
2, 6840, Note_on_c, 0, 76, 0
2, 6840, Note_on_c, 0, 71, 40
2, 6960, Note_on_c, 0, 71, 0
2, 6960, Note_on_c, 0, 74, 47
2, 7080, Note_on_c, 0, 74, 0
2, 7080, Note_on_c, 0, 72, 39
2, 7200, Note_on_c, 0, 72, 0
2, 7200, Note_on_c, 0, 69, 51
2, 7440, Note_on_c, 0, 69, 0
2, 7560, Note_on_c, 0, 60, 34
2, 7680, Note_on_c, 0, 60, 0
2, 7680, Note_on_c, 0, 64, 38
2, 7800, Note_on_c, 0, 64, 0
2, 7800, Note_on_c, 0, 69, 42
2, 7920, Note_on_c, 0, 69, 0
2, 7920, Note_on_c, 0, 71, 46
2, 8160, Note_on_c, 0, 71, 0
2, 8280, Note_on_c, 0, 64, 36
2, 8400, Note_on_c, 0, 64, 0
2, 8400, Note_on_c, 0, 68, 39
2, 8520, Note_on_c, 0, 68, 0
2, 8520, Note_on_c, 0, 71, 42
2, 8640, Note_on_c, 0, 71, 0
2, 8640, Note_on_c, 0, 72, 45
2, 8880, Note_on_c, 0, 72, 0
2, 9000, Note_on_c, 0, 64, 35
2, 9120, Note_on_c, 0, 64, 0
2, 9120, Note_on_c, 0, 76, 38
2, 9240, Note_on_c, 0, 76, 0
2, 9240, Note_on_c, 0, 75, 34
2, 9360, Note_on_c, 0, 75, 0
2, 9360, Note_on_c, 0, 76, 41
2, 9480, Note_on_c, 0, 76, 0
2, 9480, Note_on_c, 0, 75, 37
2, 9600, Note_on_c, 0, 75, 0
2, 9600, Note_on_c, 0, 76, 46
2, 9720, Note_on_c, 0, 76, 0
2, 9720, Note_on_c, 0, 71, 39
2, 9840, Note_on_c, 0, 71, 0
2, 9840, Note_on_c, 0, 74, 48
2, 9960, Note_on_c, 0, 74, 0
2, 9960, Note_on_c, 0, 72, 39
2, 10080, Note_on_c, 0, 72, 0
2, 10080, Note_on_c, 0, 69, 48
2, 10320, Note_on_c, 0, 69, 0
2, 10440, Note_on_c, 0, 60, 34
2, 10560, Note_on_c, 0, 60, 0
2, 10560, Note_on_c, 0, 64, 37
2, 10680, Note_on_c, 0, 64, 0
2, 10680, Note_on_c, 0, 69, 41
2, 10800, Note_on_c, 0, 69, 0
2, 10800, Note_on_c, 0, 71, 45
2, 11040, Note_on_c, 0, 71, 0
2, 11160, Note_on_c, 0, 64, 37
2, 11280, Note_on_c, 0, 64, 0
2, 11280, Note_on_c, 0, 72, 40
2, 11400, Note_on_c, 0, 72, 0
2, 11400, Note_on_c, 0, 71, 38
2, 11520, Note_on_c, 0, 71, 0
2, 11520, Note_on_c, 0, 69, 40
2, 11760, Note_on_c, 0, 69, 0
2, 11880, Note_on_c, 0, 71, 42
2, 12000, Note_on_c, 0, 71, 0
2, 12000, Note_on_c, 0, 72, 45
2, 12120, Note_on_c, 0, 72, 0
2, 12120, Note_on_c, 0, 74, 48
2, 12240, Note_on_c, 0, 74, 0
2, 12240, Note_on_c, 0, 76, 51
2, 12600, Note_on_c, 0, 76, 0
2, 12600, Note_on_c, 0, 67, 40
2, 12720, Note_on_c, 0, 67, 0
2, 12720, Note_on_c, 0, 77, 46
2, 12840, Note_on_c, 0, 77, 0
2, 12840, Note_on_c, 0, 76, 43
2, 12960, Note_on_c, 0, 76, 0
2, 12960, Note_on_c, 0, 74, 50
2, 13320, Note_on_c, 0, 74, 0
2, 13320, Note_on_c, 0, 65, 40
2, 13440, Note_on_c, 0, 65, 0
2, 13440, Note_on_c, 0, 76, 46
2, 13560, Note_on_c, 0, 76, 0
2, 13560, Note_on_c, 0, 74, 43
2, 13680, Note_on_c, 0, 74, 0
2, 13680, Note_on_c, 0, 72, 50
2, 14040, Note_on_c, 0, 72, 0
2, 14040, Note_on_c, 0, 64, 40
2, 14160, Note_on_c, 0, 64, 0
2, 14160, Note_on_c, 0, 74, 46
2, 14280, Note_on_c, 0, 74, 0
2, 14280, Note_on_c, 0, 72, 43
2, 14400, Note_on_c, 0, 72, 0
2, 14400, Note_on_c, 0, 71, 50
2, 14640, Note_on_c, 0, 71, 0
2, 14760, Note_on_c, 0, 64, 39
2, 14880, Note_on_c, 0, 64, 0
2, 14880, Note_on_c, 0, 76, 45
2, 15000, Note_on_c, 0, 76, 0
2, 15240, Note_on_c, 0, 76, 43
2, 15360, Note_on_c, 0, 76, 0
2, 15360, Note_on_c, 0, 88, 48
2, 15480, Note_on_c, 0, 88, 0
2, 15720, Note_on_c, 0, 75, 42
2, 15840, Note_on_c, 0, 75, 0
2, 15840, Note_on_c, 0, 76, 48
2, 15960, Note_on_c, 0, 76, 0
2, 16200, Note_on_c, 0, 75, 35
2, 16320, Note_on_c, 0, 75, 0
2, 16320, Note_on_c, 0, 76, 37
2, 16440, Note_on_c, 0, 76, 0
2, 16440, Note_on_c, 0, 75, 34
2, 16560, Note_on_c, 0, 75, 0
2, 16560, Note_on_c, 0, 76, 40
2, 16680, Note_on_c, 0, 76, 0
2, 16680, Note_on_c, 0, 75, 36
2, 16800, Note_on_c, 0, 75, 0
2, 16800, Note_on_c, 0, 76, 40
2, 16920, Note_on_c, 0, 76, 0
2, 16920, Note_on_c, 0, 71, 35
2, 17040, Note_on_c, 0, 71, 0
2, 17040, Note_on_c, 0, 74, 42
2, 17160, Note_on_c, 0, 74, 0
2, 17160, Note_on_c, 0, 72, 37
2, 17280, Note_on_c, 0, 72, 0
2, 17280, Note_on_c, 0, 69, 45
2, 17520, Note_on_c, 0, 69, 0
2, 17640, Note_on_c, 0, 60, 34
2, 17760, Note_on_c, 0, 60, 0
2, 17760, Note_on_c, 0, 64, 38
2, 17880, Note_on_c, 0, 64, 0
2, 17880, Note_on_c, 0, 69, 42
2, 18000, Note_on_c, 0, 69, 0
2, 18000, Note_on_c, 0, 71, 46
2, 18240, Note_on_c, 0, 71, 0
2, 18360, Note_on_c, 0, 64, 36
2, 18480, Note_on_c, 0, 64, 0
2, 18480, Note_on_c, 0, 68, 39
2, 18600, Note_on_c, 0, 68, 0
2, 18600, Note_on_c, 0, 71, 42
2, 18720, Note_on_c, 0, 71, 0
2, 18720, Note_on_c, 0, 72, 45
2, 18960, Note_on_c, 0, 72, 0
2, 19080, Note_on_c, 0, 64, 35
2, 19200, Note_on_c, 0, 64, 0
2, 19200, Note_on_c, 0, 76, 38
2, 19320, Note_on_c, 0, 76, 0
2, 19320, Note_on_c, 0, 75, 34
2, 19440, Note_on_c, 0, 75, 0
2, 19440, Note_on_c, 0, 76, 41
2, 19560, Note_on_c, 0, 76, 0
2, 19560, Note_on_c, 0, 75, 37
2, 19680, Note_on_c, 0, 75, 0
2, 19680, Note_on_c, 0, 76, 46
2, 19800, Note_on_c, 0, 76, 0
2, 19800, Note_on_c, 0, 71, 39
2, 19920, Note_on_c, 0, 71, 0
2, 19920, Note_on_c, 0, 74, 48
2, 20040, Note_on_c, 0, 74, 0
2, 20040, Note_on_c, 0, 72, 39
2, 20160, Note_on_c, 0, 72, 0
2, 20160, Note_on_c, 0, 69, 46
2, 20400, Note_on_c, 0, 69, 0
2, 20520, Note_on_c, 0, 60, 34
2, 20640, Note_on_c, 0, 60, 0
2, 20640, Note_on_c, 0, 64, 37
2, 20760, Note_on_c, 0, 64, 0
2, 20760, Note_on_c, 0, 69, 41
2, 20880, Note_on_c, 0, 69, 0
2, 20880, Note_on_c, 0, 71, 45
2, 21120, Note_on_c, 0, 71, 0
2, 21240, Note_on_c, 0, 64, 37
2, 21360, Note_on_c, 0, 64, 0
2, 21360, Note_on_c, 0, 72, 40
2, 21480, Note_on_c, 0, 72, 0
2, 21480, Note_on_c, 0, 71, 38
2, 21600, Note_on_c, 0, 71, 0
2, 21600, Note_on_c, 0, 69, 40
2, 21840, Note_on_c, 0, 69, 0
2, 21960, Note_on_c, 0, 71, 43
2, 22080, Note_on_c, 0, 71, 0
2, 22080, Note_on_c, 0, 72, 45
2, 22200, Note_on_c, 0, 72, 0
2, 22200, Note_on_c, 0, 74, 47
2, 22320, Note_on_c, 0, 74, 0
2, 22320, Note_on_c, 0, 76, 50
2, 22680, Note_on_c, 0, 76, 0
2, 22680, Note_on_c, 0, 67, 40
2, 22800, Note_on_c, 0, 67, 0
2, 22800, Note_on_c, 0, 77, 46
2, 22920, Note_on_c, 0, 77, 0
2, 22920, Note_on_c, 0, 76, 43
2, 23040, Note_on_c, 0, 76, 0
2, 23040, Note_on_c, 0, 74, 50
2, 23400, Note_on_c, 0, 74, 0
2, 23400, Note_on_c, 0, 65, 40
2, 23520, Note_on_c, 0, 65, 0
2, 23520, Note_on_c, 0, 76, 46
2, 23640, Note_on_c, 0, 76, 0
2, 23640, Note_on_c, 0, 74, 43
2, 23760, Note_on_c, 0, 74, 0
2, 23760, Note_on_c, 0, 72, 50
2, 24120, Note_on_c, 0, 72, 0
2, 24120, Note_on_c, 0, 64, 40
2, 24240, Note_on_c, 0, 64, 0
2, 24240, Note_on_c, 0, 74, 46
2, 24360, Note_on_c, 0, 74, 0
2, 24360, Note_on_c, 0, 72, 43
2, 24480, Note_on_c, 0, 72, 0
2, 24480, Note_on_c, 0, 71, 50
2, 24720, Note_on_c, 0, 71, 0
2, 24840, Note_on_c, 0, 64, 39
2, 24960, Note_on_c, 0, 64, 0
2, 24960, Note_on_c, 0, 76, 45
2, 25080, Note_on_c, 0, 76, 0
2, 25320, Note_on_c, 0, 76, 43
2, 25440, Note_on_c, 0, 76, 0
2, 25440, Note_on_c, 0, 88, 48
2, 25560, Note_on_c, 0, 88, 0
2, 25800, Note_on_c, 0, 75, 42
2, 25920, Note_on_c, 0, 75, 0
2, 25920, Note_on_c, 0, 76, 48
2, 26040, Note_on_c, 0, 76, 0
2, 26280, Note_on_c, 0, 75, 35
2, 26400, Note_on_c, 0, 75, 0
2, 26400, Note_on_c, 0, 76, 37
2, 26520, Note_on_c, 0, 76, 0
2, 26520, Note_on_c, 0, 75, 34
2, 26640, Note_on_c, 0, 75, 0
2, 26640, Note_on_c, 0, 76, 39
2, 26760, Note_on_c, 0, 76, 0
2, 26760, Note_on_c, 0, 75, 36
2, 26880, Note_on_c, 0, 75, 0
2, 26880, Note_on_c, 0, 76, 39
2, 27000, Note_on_c, 0, 76, 0
2, 27000, Note_on_c, 0, 71, 35
2, 27120, Note_on_c, 0, 71, 0
2, 27120, Note_on_c, 0, 74, 40
2, 27240, Note_on_c, 0, 74, 0
2, 27240, Note_on_c, 0, 72, 33
2, 27360, Note_on_c, 0, 72, 0
2, 27360, Note_on_c, 0, 69, 46
2, 27600, Note_on_c, 0, 69, 0
2, 27720, Note_on_c, 0, 60, 34
2, 27840, Note_on_c, 0, 60, 0
2, 27840, Note_on_c, 0, 64, 38
2, 27960, Note_on_c, 0, 64, 0
2, 27960, Note_on_c, 0, 69, 42
2, 28080, Note_on_c, 0, 69, 0
2, 28080, Note_on_c, 0, 71, 46
2, 28320, Note_on_c, 0, 71, 0
2, 28440, Note_on_c, 0, 64, 36
2, 28560, Note_on_c, 0, 64, 0
2, 28560, Note_on_c, 0, 68, 39
2, 28680, Note_on_c, 0, 68, 0
2, 28680, Note_on_c, 0, 71, 42
2, 28800, Note_on_c, 0, 71, 0
2, 28800, Note_on_c, 0, 72, 45
2, 29040, Note_on_c, 0, 72, 0
2, 29160, Note_on_c, 0, 64, 35
2, 29280, Note_on_c, 0, 64, 0
2, 29280, Note_on_c, 0, 76, 38
2, 29400, Note_on_c, 0, 76, 0
2, 29400, Note_on_c, 0, 75, 34
2, 29520, Note_on_c, 0, 75, 0
2, 29520, Note_on_c, 0, 76, 41
2, 29640, Note_on_c, 0, 76, 0
2, 29640, Note_on_c, 0, 75, 37
2, 29760, Note_on_c, 0, 75, 0
2, 29760, Note_on_c, 0, 76, 46
2, 29880, Note_on_c, 0, 76, 0
2, 29880, Note_on_c, 0, 71, 39
2, 30000, Note_on_c, 0, 71, 0
2, 30000, Note_on_c, 0, 74, 48
2, 30120, Note_on_c, 0, 74, 0
2, 30120, Note_on_c, 0, 72, 39
2, 30240, Note_on_c, 0, 72, 0
2, 30240, Note_on_c, 0, 69, 48
2, 30480, Note_on_c, 0, 69, 0
2, 30600, Note_on_c, 0, 60, 34
2, 30720, Note_on_c, 0, 60, 0
2, 30720, Note_on_c, 0, 64, 37
2, 30840, Note_on_c, 0, 64, 0
2, 30840, Note_on_c, 0, 69, 41
2, 30960, Note_on_c, 0, 69, 0
2, 30960, Note_on_c, 0, 71, 45
2, 31200, Note_on_c, 0, 71, 0
2, 31320, Note_on_c, 0, 64, 37
2, 31440, Note_on_c, 0, 64, 0
2, 31440, Note_on_c, 0, 72, 40
2, 31560, Note_on_c, 0, 72, 0
2, 31560, Note_on_c, 0, 71, 38
2, 31680, Note_on_c, 0, 71, 0
2, 31680, Note_on_c, 0, 69, 40
2, 31920, Note_on_c, 0, 69, 0
2, 32040, Note_on_c, 0, 64, 40
2, 32040, Note_on_c, 0, 72, 46
2, 32130, Note_on_c, 0, 72, 0
2, 32130, Note_on_c, 0, 64, 0
2, 32160, Note_on_c, 0, 65, 41
2, 32160, Note_on_c, 0, 72, 47
2, 32250, Note_on_c, 0, 72, 0
2, 32250, Note_on_c, 0, 65, 0
2, 32280, Note_on_c, 0, 64, 43
2, 32280, Note_on_c, 0, 67, 43
2, 32280, Note_on_c, 0, 72, 49
2, 32340, Note_on_c, 0, 72, 0
2, 32340, Note_on_c, 0, 67, 0
2, 32340, Note_on_c, 0, 64, 0
2, 32340, Note_on_c, 0, 65, 43
2, 32370, Note_on_c, 0, 65, 0
2, 32370, Note_on_c, 0, 69, 41
2, 32400, Note_on_c, 0, 69, 0
2, 32400, Note_on_c, 0, 72, 55
2, 32880, Note_on_c, 0, 72, 0
2, 32880, Note_on_c, 0, 77, 57
2, 33060, Note_on_c, 0, 77, 0
2, 33060, Note_on_c, 0, 76, 52
2, 33120, Note_on_c, 0, 76, 0
2, 33120, Note_on_c, 0, 76, 57
2, 33360, Note_on_c, 0, 76, 0
2, 33360, Note_on_c, 0, 74, 51
2, 33600, Note_on_c, 0, 74, 0
2, 33600, Note_on_c, 0, 82, 62
2, 33780, Note_on_c, 0, 82, 0
2, 33780, Note_on_c, 0, 81, 56
2, 33840, Note_on_c, 0, 81, 0
2, 33840, Note_on_c, 0, 81, 56
2, 33960, Note_on_c, 0, 81, 0
2, 33960, Note_on_c, 0, 79, 56
2, 34080, Note_on_c, 0, 79, 0
2, 34080, Note_on_c, 0, 77, 55
2, 34200, Note_on_c, 0, 77, 0
2, 34200, Note_on_c, 0, 76, 55
2, 34320, Note_on_c, 0, 76, 0
2, 34320, Note_on_c, 0, 74, 55
2, 34440, Note_on_c, 0, 74, 0
2, 34440, Note_on_c, 0, 72, 54
2, 34560, Note_on_c, 0, 72, 0
2, 34560, Note_on_c, 0, 70, 54
2, 34800, Note_on_c, 0, 70, 0
2, 34800, Note_on_c, 0, 69, 51
2, 35010, Note_on_c, 0, 69, 0
2, 35010, Note_on_c, 0, 70, 44
2, 35040, Note_on_c, 0, 70, 0
2, 35040, Note_on_c, 0, 69, 49
2, 35100, Note_on_c, 0, 69, 0
2, 35100, Note_on_c, 0, 67, 50
2, 35160, Note_on_c, 0, 67, 0
2, 35160, Note_on_c, 0, 69, 51
2, 35220, Note_on_c, 0, 69, 0
2, 35220, Note_on_c, 0, 70, 52
2, 35280, Note_on_c, 0, 70, 0
2, 35280, Note_on_c, 0, 72, 54
2, 35760, Note_on_c, 0, 72, 0
2, 35760, Note_on_c, 0, 74, 55
2, 35880, Note_on_c, 0, 74, 0
2, 35880, Note_on_c, 0, 75, 57
2, 36000, Note_on_c, 0, 75, 0
2, 36000, Note_on_c, 0, 76, 59
2, 36360, Note_on_c, 0, 76, 0
2, 36360, Note_on_c, 0, 76, 58
2, 36480, Note_on_c, 0, 76, 0
2, 36480, Note_on_c, 0, 77, 63
2, 36600, Note_on_c, 0, 77, 0
2, 36600, Note_on_c, 0, 69, 58
2, 36720, Note_on_c, 0, 69, 0
2, 36720, Note_on_c, 0, 72, 64
2, 37200, Note_on_c, 0, 72, 0
2, 37200, Note_on_c, 0, 74, 64
2, 37380, Note_on_c, 0, 74, 0
2, 37380, Note_on_c, 0, 71, 57
2, 37440, Note_on_c, 0, 71, 0
2, 37440, Note_on_c, 0, 72, 64
2, 37500, Note_on_c, 0, 72, 0
2, 37500, Note_on_c, 0, 79, 57
2, 37560, Note_on_c, 0, 79, 0
2, 37560, Note_on_c, 0, 67, 64
2, 37620, Note_on_c, 0, 67, 0
2, 37620, Note_on_c, 0, 79, 57
2, 37680, Note_on_c, 0, 79, 0
2, 37680, Note_on_c, 0, 69, 64
2, 37740, Note_on_c, 0, 69, 0
2, 37740, Note_on_c, 0, 79, 63
2, 37800, Note_on_c, 0, 79, 0
2, 37800, Note_on_c, 0, 71, 66
2, 37860, Note_on_c, 0, 71, 0
2, 37860, Note_on_c, 0, 79, 63
2, 37920, Note_on_c, 0, 79, 0
2, 37920, Note_on_c, 0, 72, 68
2, 37980, Note_on_c, 0, 72, 0
2, 37980, Note_on_c, 0, 79, 66
2, 38040, Note_on_c, 0, 79, 0
2, 38040, Note_on_c, 0, 74, 70
2, 38100, Note_on_c, 0, 74, 0
2, 38100, Note_on_c, 0, 79, 65
2, 38160, Note_on_c, 0, 79, 0
2, 38160, Note_on_c, 0, 76, 72
2, 38220, Note_on_c, 0, 76, 0
2, 38220, Note_on_c, 0, 79, 63
2, 38280, Note_on_c, 0, 79, 0
2, 38280, Note_on_c, 0, 84, 67
2, 38340, Note_on_c, 0, 84, 0
2, 38340, Note_on_c, 0, 83, 62
2, 38400, Note_on_c, 0, 83, 0
2, 38400, Note_on_c, 0, 81, 67
2, 38460, Note_on_c, 0, 81, 0
2, 38460, Note_on_c, 0, 79, 62
2, 38520, Note_on_c, 0, 79, 0
2, 38520, Note_on_c, 0, 77, 67
2, 38580, Note_on_c, 0, 77, 0
2, 38580, Note_on_c, 0, 76, 61
2, 38640, Note_on_c, 0, 76, 0
2, 38640, Note_on_c, 0, 74, 69
2, 38700, Note_on_c, 0, 74, 0
2, 38700, Note_on_c, 0, 79, 63
2, 38760, Note_on_c, 0, 79, 0
2, 38760, Note_on_c, 0, 77, 69
2, 38820, Note_on_c, 0, 77, 0
2, 38820, Note_on_c, 0, 74, 64
2, 38880, Note_on_c, 0, 74, 0
2, 38880, Note_on_c, 0, 72, 64
2, 38940, Note_on_c, 0, 72, 0
2, 38940, Note_on_c, 0, 79, 57
2, 39000, Note_on_c, 0, 79, 0
2, 39000, Note_on_c, 0, 67, 64
2, 39060, Note_on_c, 0, 67, 0
2, 39060, Note_on_c, 0, 79, 57
2, 39120, Note_on_c, 0, 79, 0
2, 39120, Note_on_c, 0, 69, 64
2, 39180, Note_on_c, 0, 69, 0
2, 39180, Note_on_c, 0, 79, 63
2, 39240, Note_on_c, 0, 79, 0
2, 39240, Note_on_c, 0, 71, 66
2, 39300, Note_on_c, 0, 71, 0
2, 39300, Note_on_c, 0, 79, 63
2, 39360, Note_on_c, 0, 79, 0
2, 39360, Note_on_c, 0, 72, 68
2, 39420, Note_on_c, 0, 72, 0
2, 39420, Note_on_c, 0, 79, 66
2, 39480, Note_on_c, 0, 79, 0
2, 39480, Note_on_c, 0, 74, 70
2, 39540, Note_on_c, 0, 74, 0
2, 39540, Note_on_c, 0, 79, 65
2, 39600, Note_on_c, 0, 79, 0
2, 39600, Note_on_c, 0, 76, 72
2, 39660, Note_on_c, 0, 76, 0
2, 39660, Note_on_c, 0, 79, 65
2, 39720, Note_on_c, 0, 79, 0
2, 39720, Note_on_c, 0, 84, 69
2, 39780, Note_on_c, 0, 84, 0
2, 39780, Note_on_c, 0, 83, 64
2, 39840, Note_on_c, 0, 83, 0
2, 39840, Note_on_c, 0, 81, 70
2, 39900, Note_on_c, 0, 81, 0
2, 39900, Note_on_c, 0, 79, 60
2, 39960, Note_on_c, 0, 79, 0
2, 39960, Note_on_c, 0, 77, 64
2, 40020, Note_on_c, 0, 77, 0
2, 40020, Note_on_c, 0, 76, 55
2, 40080, Note_on_c, 0, 76, 0
2, 40080, Note_on_c, 0, 74, 65
2, 40140, Note_on_c, 0, 74, 0
2, 40140, Note_on_c, 0, 79, 57
2, 40200, Note_on_c, 0, 79, 0
2, 40200, Note_on_c, 0, 77, 63
2, 40260, Note_on_c, 0, 77, 0
2, 40260, Note_on_c, 0, 74, 53
2, 40320, Note_on_c, 0, 74, 0
2, 40320, Note_on_c, 0, 76, 57
2, 40380, Note_on_c, 0, 76, 0
2, 40380, Note_on_c, 0, 77, 50
2, 40440, Note_on_c, 0, 77, 0
2, 40440, Note_on_c, 0, 76, 50
2, 40500, Note_on_c, 0, 76, 0
2, 40500, Note_on_c, 0, 75, 50
2, 40560, Note_on_c, 0, 75, 0
2, 40560, Note_on_c, 0, 76, 57
2, 40620, Note_on_c, 0, 76, 0
2, 40620, Note_on_c, 0, 71, 49
2, 40680, Note_on_c, 0, 71, 0
2, 40680, Note_on_c, 0, 76, 54
2, 40740, Note_on_c, 0, 76, 0
2, 40740, Note_on_c, 0, 75, 52
2, 40800, Note_on_c, 0, 75, 0
2, 40800, Note_on_c, 0, 76, 57
2, 40860, Note_on_c, 0, 76, 0
2, 40860, Note_on_c, 0, 71, 51
2, 40920, Note_on_c, 0, 71, 0
2, 40920, Note_on_c, 0, 76, 54
2, 40980, Note_on_c, 0, 76, 0
2, 40980, Note_on_c, 0, 75, 49
2, 41040, Note_on_c, 0, 75, 0
2, 41040, Note_on_c, 0, 76, 57
2, 41400, Note_on_c, 0, 76, 0
2, 41400, Note_on_c, 0, 71, 52
2, 41520, Note_on_c, 0, 71, 0
2, 41520, Note_on_c, 0, 76, 57
2, 41640, Note_on_c, 0, 76, 0
2, 41640, Note_on_c, 0, 75, 49
2, 41760, Note_on_c, 0, 75, 0
2, 41760, Note_on_c, 0, 76, 56
2, 42120, Note_on_c, 0, 76, 0
2, 42120, Note_on_c, 0, 71, 42
2, 42240, Note_on_c, 0, 71, 0
2, 42240, Note_on_c, 0, 76, 50
2, 42360, Note_on_c, 0, 76, 0
2, 42600, Note_on_c, 0, 75, 39
2, 42720, Note_on_c, 0, 75, 0
2, 42720, Note_on_c, 0, 76, 41
2, 42840, Note_on_c, 0, 76, 0
2, 43080, Note_on_c, 0, 75, 34
2, 43200, Note_on_c, 0, 75, 0
2, 43200, Note_on_c, 0, 76, 40
2, 43320, Note_on_c, 0, 76, 0
2, 43320, Note_on_c, 0, 75, 36
2, 43440, Note_on_c, 0, 75, 0
2, 43440, Note_on_c, 0, 76, 40
2, 43560, Note_on_c, 0, 76, 0
2, 43560, Note_on_c, 0, 71, 36
2, 43680, Note_on_c, 0, 71, 0
2, 43680, Note_on_c, 0, 74, 43
2, 43800, Note_on_c, 0, 74, 0
2, 43800, Note_on_c, 0, 72, 35
2, 43920, Note_on_c, 0, 72, 0
2, 43920, Note_on_c, 0, 69, 45
2, 44160, Note_on_c, 0, 69, 0
2, 44280, Note_on_c, 0, 60, 34
2, 44400, Note_on_c, 0, 60, 0
2, 44400, Note_on_c, 0, 64, 38
2, 44520, Note_on_c, 0, 64, 0
2, 44520, Note_on_c, 0, 69, 42
2, 44640, Note_on_c, 0, 69, 0
2, 44640, Note_on_c, 0, 71, 46
2, 44880, Note_on_c, 0, 71, 0
2, 45000, Note_on_c, 0, 64, 36
2, 45120, Note_on_c, 0, 64, 0
2, 45120, Note_on_c, 0, 68, 39
2, 45240, Note_on_c, 0, 68, 0
2, 45240, Note_on_c, 0, 71, 42
2, 45360, Note_on_c, 0, 71, 0
2, 45360, Note_on_c, 0, 72, 45
2, 45600, Note_on_c, 0, 72, 0
2, 45720, Note_on_c, 0, 64, 35
2, 45840, Note_on_c, 0, 64, 0
2, 45840, Note_on_c, 0, 76, 38
2, 45960, Note_on_c, 0, 76, 0
2, 45960, Note_on_c, 0, 75, 34
2, 46080, Note_on_c, 0, 75, 0
2, 46080, Note_on_c, 0, 76, 41
2, 46200, Note_on_c, 0, 76, 0
2, 46200, Note_on_c, 0, 75, 37
2, 46320, Note_on_c, 0, 75, 0
2, 46320, Note_on_c, 0, 76, 46
2, 46440, Note_on_c, 0, 76, 0
2, 46440, Note_on_c, 0, 71, 39
2, 46560, Note_on_c, 0, 71, 0
2, 46560, Note_on_c, 0, 74, 48
2, 46680, Note_on_c, 0, 74, 0
2, 46680, Note_on_c, 0, 72, 39
2, 46800, Note_on_c, 0, 72, 0
2, 46800, Note_on_c, 0, 69, 48
2, 47040, Note_on_c, 0, 69, 0
2, 47160, Note_on_c, 0, 60, 34
2, 47280, Note_on_c, 0, 60, 0
2, 47280, Note_on_c, 0, 64, 37
2, 47400, Note_on_c, 0, 64, 0
2, 47400, Note_on_c, 0, 69, 41
2, 47520, Note_on_c, 0, 69, 0
2, 47520, Note_on_c, 0, 71, 45
2, 47760, Note_on_c, 0, 71, 0
2, 47880, Note_on_c, 0, 64, 37
2, 48000, Note_on_c, 0, 64, 0
2, 48000, Note_on_c, 0, 72, 40
2, 48120, Note_on_c, 0, 72, 0
2, 48120, Note_on_c, 0, 71, 38
2, 48240, Note_on_c, 0, 71, 0
2, 48240, Note_on_c, 0, 69, 40
2, 48480, Note_on_c, 0, 69, 0
2, 48600, Note_on_c, 0, 71, 44
2, 48720, Note_on_c, 0, 71, 0
2, 48720, Note_on_c, 0, 72, 46
2, 48840, Note_on_c, 0, 72, 0
2, 48840, Note_on_c, 0, 74, 48
2, 48960, Note_on_c, 0, 74, 0
2, 48960, Note_on_c, 0, 76, 52
2, 49320, Note_on_c, 0, 76, 0
2, 49320, Note_on_c, 0, 67, 40
2, 49440, Note_on_c, 0, 67, 0
2, 49440, Note_on_c, 0, 77, 46
2, 49560, Note_on_c, 0, 77, 0
2, 49560, Note_on_c, 0, 76, 43
2, 49680, Note_on_c, 0, 76, 0
2, 49680, Note_on_c, 0, 74, 50
2, 50040, Note_on_c, 0, 74, 0
2, 50040, Note_on_c, 0, 65, 40
2, 50160, Note_on_c, 0, 65, 0
2, 50160, Note_on_c, 0, 76, 46
2, 50280, Note_on_c, 0, 76, 0
2, 50280, Note_on_c, 0, 74, 43
2, 50400, Note_on_c, 0, 74, 0
2, 50400, Note_on_c, 0, 72, 50
2, 50760, Note_on_c, 0, 72, 0
2, 50760, Note_on_c, 0, 64, 40
2, 50880, Note_on_c, 0, 64, 0
2, 50880, Note_on_c, 0, 74, 46
2, 51000, Note_on_c, 0, 74, 0
2, 51000, Note_on_c, 0, 72, 43
2, 51120, Note_on_c, 0, 72, 0
2, 51120, Note_on_c, 0, 71, 50
2, 51360, Note_on_c, 0, 71, 0
2, 51480, Note_on_c, 0, 64, 39
2, 51600, Note_on_c, 0, 64, 0
2, 51600, Note_on_c, 0, 76, 45
2, 51720, Note_on_c, 0, 76, 0
2, 51960, Note_on_c, 0, 76, 43
2, 52080, Note_on_c, 0, 76, 0
2, 52080, Note_on_c, 0, 88, 48
2, 52200, Note_on_c, 0, 88, 0
2, 52440, Note_on_c, 0, 75, 42
2, 52560, Note_on_c, 0, 75, 0
2, 52560, Note_on_c, 0, 76, 48
2, 52680, Note_on_c, 0, 76, 0
2, 52920, Note_on_c, 0, 75, 35
2, 53040, Note_on_c, 0, 75, 0
2, 53040, Note_on_c, 0, 76, 37
2, 53160, Note_on_c, 0, 76, 0
2, 53160, Note_on_c, 0, 75, 34
2, 53280, Note_on_c, 0, 75, 0
2, 53280, Note_on_c, 0, 76, 40
2, 53400, Note_on_c, 0, 76, 0
2, 53400, Note_on_c, 0, 75, 36
2, 53520, Note_on_c, 0, 75, 0
2, 53520, Note_on_c, 0, 76, 43
2, 53640, Note_on_c, 0, 76, 0
2, 53640, Note_on_c, 0, 71, 38
2, 53760, Note_on_c, 0, 71, 0
2, 53760, Note_on_c, 0, 74, 44
2, 53880, Note_on_c, 0, 74, 0
2, 53880, Note_on_c, 0, 72, 38
2, 54000, Note_on_c, 0, 72, 0
2, 54000, Note_on_c, 0, 69, 47
2, 54240, Note_on_c, 0, 69, 0
2, 54360, Note_on_c, 0, 60, 34
2, 54480, Note_on_c, 0, 60, 0
2, 54480, Note_on_c, 0, 64, 38
2, 54600, Note_on_c, 0, 64, 0
2, 54600, Note_on_c, 0, 69, 42
2, 54720, Note_on_c, 0, 69, 0
2, 54720, Note_on_c, 0, 71, 46
2, 54960, Note_on_c, 0, 71, 0
2, 55080, Note_on_c, 0, 64, 36
2, 55200, Note_on_c, 0, 64, 0
2, 55200, Note_on_c, 0, 68, 39
2, 55320, Note_on_c, 0, 68, 0
2, 55320, Note_on_c, 0, 71, 42
2, 55440, Note_on_c, 0, 71, 0
2, 55440, Note_on_c, 0, 72, 45
2, 55680, Note_on_c, 0, 72, 0
2, 55800, Note_on_c, 0, 64, 35
2, 55920, Note_on_c, 0, 64, 0
2, 55920, Note_on_c, 0, 76, 38
2, 56040, Note_on_c, 0, 76, 0
2, 56040, Note_on_c, 0, 75, 34
2, 56160, Note_on_c, 0, 75, 0
2, 56160, Note_on_c, 0, 76, 41
2, 56280, Note_on_c, 0, 76, 0
2, 56280, Note_on_c, 0, 75, 37
2, 56400, Note_on_c, 0, 75, 0
2, 56400, Note_on_c, 0, 76, 41
2, 56520, Note_on_c, 0, 76, 0
2, 56520, Note_on_c, 0, 71, 34
2, 56640, Note_on_c, 0, 71, 0
2, 56640, Note_on_c, 0, 74, 45
2, 56760, Note_on_c, 0, 74, 0
2, 56760, Note_on_c, 0, 72, 36
2, 56880, Note_on_c, 0, 72, 0
2, 56880, Note_on_c, 0, 69, 46
2, 57120, Note_on_c, 0, 69, 0
2, 57240, Note_on_c, 0, 60, 34
2, 57360, Note_on_c, 0, 60, 0
2, 57360, Note_on_c, 0, 64, 37
2, 57480, Note_on_c, 0, 64, 0
2, 57480, Note_on_c, 0, 69, 41
2, 57600, Note_on_c, 0, 69, 0
2, 57600, Note_on_c, 0, 71, 45
2, 57840, Note_on_c, 0, 71, 0
2, 57960, Note_on_c, 0, 64, 37
2, 58080, Note_on_c, 0, 64, 0
2, 58080, Note_on_c, 0, 72, 40
2, 58200, Note_on_c, 0, 72, 0
2, 58200, Note_on_c, 0, 71, 38
2, 58320, Note_on_c, 0, 71, 0
2, 58320, Note_on_c, 0, 69, 40
2, 58560, Note_on_c, 0, 69, 0
2, 59040, Note_on_c, 0, 64, 45
2, 59040, Note_on_c, 0, 67, 45
2, 59040, Note_on_c, 0, 70, 45
2, 59040, Note_on_c, 0, 73, 53
2, 59760, Note_on_c, 0, 73, 0
2, 59760, Note_on_c, 0, 64, 0
2, 59760, Note_on_c, 0, 67, 0
2, 59760, Note_on_c, 0, 70, 0
2, 59760, Note_on_c, 0, 65, 49
2, 59760, Note_on_c, 0, 69, 49
2, 59760, Note_on_c, 0, 74, 59
2, 60240, Note_on_c, 0, 74, 0
2, 60240, Note_on_c, 0, 69, 0
2, 60240, Note_on_c, 0, 65, 0
2, 60240, Note_on_c, 0, 73, 54
2, 60240, Note_on_c, 0, 76, 64
2, 60330, Note_on_c, 0, 76, 0
2, 60330, Note_on_c, 0, 73, 0
2, 60360, Note_on_c, 0, 74, 59
2, 60360, Note_on_c, 0, 77, 70
2, 60450, Note_on_c, 0, 77, 0
2, 60450, Note_on_c, 0, 74, 0
2, 60480, Note_on_c, 0, 68, 65
2, 60480, Note_on_c, 0, 74, 65
2, 60480, Note_on_c, 0, 77, 77
2, 60960, Note_on_c, 0, 77, 0
2, 60960, Note_on_c, 0, 74, 0
2, 60960, Note_on_c, 0, 68, 0
2, 60960, Note_on_c, 0, 68, 63
2, 60960, Note_on_c, 0, 74, 63
2, 60960, Note_on_c, 0, 77, 75
2, 61200, Note_on_c, 0, 77, 0
2, 61200, Note_on_c, 0, 74, 0
2, 61200, Note_on_c, 0, 68, 0
2, 61200, Note_on_c, 0, 69, 60
2, 61200, Note_on_c, 0, 72, 60
2, 61200, Note_on_c, 0, 76, 72
2, 61920, Note_on_c, 0, 76, 0
2, 61920, Note_on_c, 0, 72, 0
2, 61920, Note_on_c, 0, 69, 0
2, 61920, Note_on_c, 0, 65, 69
2, 61920, Note_on_c, 0, 74, 82
2, 62400, Note_on_c, 0, 74, 0
2, 62400, Note_on_c, 0, 65, 0
2, 62400, Note_on_c, 0, 64, 61
2, 62400, Note_on_c, 0, 72, 73
2, 62490, Note_on_c, 0, 72, 0
2, 62490, Note_on_c, 0, 64, 0
2, 62520, Note_on_c, 0, 62, 61
2, 62520, Note_on_c, 0, 71, 73
2, 62610, Note_on_c, 0, 71, 0
2, 62610, Note_on_c, 0, 62, 0
2, 62640, Note_on_c, 0, 60, 67
2, 62640, Note_on_c, 0, 66, 67
2, 62640, Note_on_c, 0, 69, 79
2, 63120, Note_on_c, 0, 69, 0
2, 63120, Note_on_c, 0, 66, 0
2, 63120, Note_on_c, 0, 60, 0
2, 63120, Note_on_c, 0, 60, 66
2, 63120, Note_on_c, 0, 69, 78
2, 63360, Note_on_c, 0, 69, 0
2, 63360, Note_on_c, 0, 60, 0
2, 63360, Note_on_c, 0, 60, 68
2, 63360, Note_on_c, 0, 69, 80
2, 63600, Note_on_c, 0, 69, 0
2, 63600, Note_on_c, 0, 60, 0
2, 63600, Note_on_c, 0, 64, 66
2, 63600, Note_on_c, 0, 72, 78
2, 63840, Note_on_c, 0, 72, 0
2, 63840, Note_on_c, 0, 64, 0
2, 63840, Note_on_c, 0, 62, 61
2, 63840, Note_on_c, 0, 71, 73
2, 64080, Note_on_c, 0, 71, 0
2, 64080, Note_on_c, 0, 62, 0
2, 64080, Note_on_c, 0, 60, 56
2, 64080, Note_on_c, 0, 69, 67
2, 64800, Note_on_c, 0, 69, 0
2, 64800, Note_on_c, 0, 60, 0
2, 64800, Note_on_c, 0, 64, 45
2, 64800, Note_on_c, 0, 67, 45
2, 64800, Note_on_c, 0, 70, 45
2, 64800, Note_on_c, 0, 73, 53
2, 65520, Note_on_c, 0, 73, 0
2, 65520, Note_on_c, 0, 64, 0
2, 65520, Note_on_c, 0, 67, 0
2, 65520, Note_on_c, 0, 70, 0
2, 65520, Note_on_c, 0, 65, 49
2, 65520, Note_on_c, 0, 69, 49
2, 65520, Note_on_c, 0, 74, 59
2, 66000, Note_on_c, 0, 74, 0
2, 66000, Note_on_c, 0, 69, 0
2, 66000, Note_on_c, 0, 65, 0
2, 66000, Note_on_c, 0, 73, 54
2, 66000, Note_on_c, 0, 76, 64
2, 66090, Note_on_c, 0, 76, 0
2, 66090, Note_on_c, 0, 73, 0
2, 66120, Note_on_c, 0, 74, 59
2, 66120, Note_on_c, 0, 77, 70
2, 66210, Note_on_c, 0, 77, 0
2, 66210, Note_on_c, 0, 74, 0
2, 66240, Note_on_c, 0, 74, 65
2, 66240, Note_on_c, 0, 77, 77
2, 66720, Note_on_c, 0, 77, 0
2, 66720, Note_on_c, 0, 74, 0
2, 66720, Note_on_c, 0, 74, 63
2, 66720, Note_on_c, 0, 77, 75
2, 66960, Note_on_c, 0, 77, 0
2, 66960, Note_on_c, 0, 74, 0
2, 66960, Note_on_c, 0, 74, 60
2, 66960, Note_on_c, 0, 77, 72
2, 67680, Note_on_c, 0, 77, 0
2, 67680, Note_on_c, 0, 74, 0
2, 67680, Note_on_c, 0, 67, 69
2, 67680, Note_on_c, 0, 75, 82
2, 68160, Note_on_c, 0, 75, 0
2, 68160, Note_on_c, 0, 67, 0
2, 68160, Note_on_c, 0, 65, 61
2, 68160, Note_on_c, 0, 74, 73
2, 68250, Note_on_c, 0, 74, 0
2, 68250, Note_on_c, 0, 65, 0
2, 68280, Note_on_c, 0, 63, 61
2, 68280, Note_on_c, 0, 72, 73
2, 68370, Note_on_c, 0, 72, 0
2, 68370, Note_on_c, 0, 63, 0
2, 68400, Note_on_c, 0, 62, 67
2, 68400, Note_on_c, 0, 65, 67
2, 68400, Note_on_c, 0, 70, 79
2, 68880, Note_on_c, 0, 70, 0
2, 68880, Note_on_c, 0, 65, 0
2, 68880, Note_on_c, 0, 62, 0
2, 68880, Note_on_c, 0, 65, 66
2, 68880, Note_on_c, 0, 62, 66
2, 68880, Note_on_c, 0, 69, 78
2, 69120, Note_on_c, 0, 69, 0
2, 69120, Note_on_c, 0, 62, 0
2, 69120, Note_on_c, 0, 65, 0
2, 69120, Note_on_c, 0, 65, 68
2, 69120, Note_on_c, 0, 62, 68
2, 69120, Note_on_c, 0, 68, 80
2, 69600, Note_on_c, 0, 68, 0
2, 69600, Note_on_c, 0, 62, 0
2, 69600, Note_on_c, 0, 65, 0
2, 69600, Note_on_c, 0, 65, 61
2, 69600, Note_on_c, 0, 62, 61
2, 69600, Note_on_c, 0, 68, 73
2, 69840, Note_on_c, 0, 68, 0
2, 69840, Note_on_c, 0, 62, 0
2, 69840, Note_on_c, 0, 65, 0
2, 69840, Note_on_c, 0, 64, 61
2, 69840, Note_on_c, 0, 60, 61
2, 69840, Note_on_c, 0, 69, 73
2, 70320, Note_on_c, 0, 69, 0
2, 70320, Note_on_c, 0, 60, 0
2, 70320, Note_on_c, 0, 64, 0
2, 70560, Note_on_c, 0, 64, 49
2, 70560, Note_on_c, 0, 71, 58
2, 70800, Note_on_c, 0, 71, 0
2, 70800, Note_on_c, 0, 64, 0
2, 71280, Note_on_c, 0, 57, 42
2, 71360, Note_on_c, 0, 57, 0
2, 71360, Note_on_c, 0, 60, 44
2, 71440, Note_on_c, 0, 60, 0
2, 71440, Note_on_c, 0, 64, 45
2, 71520, Note_on_c, 0, 64, 0
2, 71520, Note_on_c, 0, 69, 47
2, 71600, Note_on_c, 0, 69, 0
2, 71600, Note_on_c, 0, 72, 43
2, 71680, Note_on_c, 0, 72, 0
2, 71680, Note_on_c, 0, 76, 43
2, 71760, Note_on_c, 0, 76, 0
2, 71760, Note_on_c, 0, 74, 47
2, 71840, Note_on_c, 0, 74, 0
2, 71840, Note_on_c, 0, 72, 43
2, 71920, Note_on_c, 0, 72, 0
2, 71920, Note_on_c, 0, 71, 43
2, 72000, Note_on_c, 0, 71, 0
2, 72000, Note_on_c, 0, 69, 45
2, 72080, Note_on_c, 0, 69, 0
2, 72080, Note_on_c, 0, 72, 47
2, 72160, Note_on_c, 0, 72, 0
2, 72160, Note_on_c, 0, 76, 48
2, 72240, Note_on_c, 0, 76, 0
2, 72240, Note_on_c, 0, 81, 50
2, 72320, Note_on_c, 0, 81, 0
2, 72320, Note_on_c, 0, 84, 47
2, 72400, Note_on_c, 0, 84, 0
2, 72400, Note_on_c, 0, 88, 47
2, 72480, Note_on_c, 0, 88, 0
2, 72480, Note_on_c, 0, 86, 52
2, 72560, Note_on_c, 0, 86, 0
2, 72560, Note_on_c, 0, 84, 47
2, 72640, Note_on_c, 0, 84, 0
2, 72640, Note_on_c, 0, 83, 47
2, 72720, Note_on_c, 0, 83, 0
2, 72720, Note_on_c, 0, 81, 49
2, 72800, Note_on_c, 0, 81, 0
2, 72800, Note_on_c, 0, 84, 51
2, 72880, Note_on_c, 0, 84, 0
2, 72880, Note_on_c, 0, 88, 53
2, 72960, Note_on_c, 0, 88, 0
2, 72960, Note_on_c, 0, 93, 53
2, 73040, Note_on_c, 0, 93, 0
2, 73040, Note_on_c, 0, 96, 50
2, 73120, Note_on_c, 0, 96, 0
2, 73120, Note_on_c, 0, 100, 50
2, 73200, Note_on_c, 0, 100, 0
2, 73200, Note_on_c, 0, 98, 54
2, 73280, Note_on_c, 0, 98, 0
2, 73280, Note_on_c, 0, 96, 49
2, 73360, Note_on_c, 0, 96, 0
2, 73360, Note_on_c, 0, 95, 50
2, 73440, Note_on_c, 0, 95, 0
2, 73440, Note_on_c, 0, 94, 54
2, 73520, Note_on_c, 0, 94, 0
2, 73520, Note_on_c, 0, 93, 50
2, 73600, Note_on_c, 0, 93, 0
2, 73600, Note_on_c, 0, 92, 49
2, 73680, Note_on_c, 0, 92, 0
2, 73680, Note_on_c, 0, 91, 51
2, 73760, Note_on_c, 0, 91, 0
2, 73760, Note_on_c, 0, 90, 49
2, 73840, Note_on_c, 0, 90, 0
2, 73840, Note_on_c, 0, 89, 48
2, 73920, Note_on_c, 0, 89, 0
2, 73920, Note_on_c, 0, 88, 51
2, 74000, Note_on_c, 0, 88, 0
2, 74000, Note_on_c, 0, 87, 49
2, 74080, Note_on_c, 0, 87, 0
2, 74080, Note_on_c, 0, 86, 50
2, 74160, Note_on_c, 0, 86, 0
2, 74160, Note_on_c, 0, 85, 50
2, 74240, Note_on_c, 0, 85, 0
2, 74240, Note_on_c, 0, 84, 49
2, 74320, Note_on_c, 0, 84, 0
2, 74320, Note_on_c, 0, 83, 49
2, 74400, Note_on_c, 0, 83, 0
2, 74400, Note_on_c, 0, 82, 48
2, 74480, Note_on_c, 0, 82, 0
2, 74480, Note_on_c, 0, 81, 48
2, 74560, Note_on_c, 0, 81, 0
2, 74560, Note_on_c, 0, 80, 47
2, 74640, Note_on_c, 0, 80, 0
2, 74640, Note_on_c, 0, 79, 47
2, 74720, Note_on_c, 0, 79, 0
2, 74720, Note_on_c, 0, 78, 46
2, 74800, Note_on_c, 0, 78, 0
2, 74800, Note_on_c, 0, 77, 46
2, 74880, Note_on_c, 0, 77, 0
2, 74880, Note_on_c, 0, 76, 39
2, 75000, Note_on_c, 0, 76, 0
2, 75000, Note_on_c, 0, 75, 36
2, 75120, Note_on_c, 0, 75, 0
2, 75120, Note_on_c, 0, 76, 41
2, 75240, Note_on_c, 0, 76, 0
2, 75240, Note_on_c, 0, 71, 35
2, 75360, Note_on_c, 0, 71, 0
2, 75360, Note_on_c, 0, 74, 43
2, 75480, Note_on_c, 0, 74, 0
2, 75480, Note_on_c, 0, 72, 39
2, 75600, Note_on_c, 0, 72, 0
2, 75600, Note_on_c, 0, 69, 46
2, 75840, Note_on_c, 0, 69, 0
2, 75960, Note_on_c, 0, 60, 34
2, 76080, Note_on_c, 0, 60, 0
2, 76080, Note_on_c, 0, 64, 38
2, 76200, Note_on_c, 0, 64, 0
2, 76200, Note_on_c, 0, 69, 42
2, 76320, Note_on_c, 0, 69, 0
2, 76320, Note_on_c, 0, 71, 46
2, 76560, Note_on_c, 0, 71, 0
2, 76680, Note_on_c, 0, 64, 36
2, 76800, Note_on_c, 0, 64, 0
2, 76800, Note_on_c, 0, 68, 39
2, 76920, Note_on_c, 0, 68, 0
2, 76920, Note_on_c, 0, 71, 42
2, 77040, Note_on_c, 0, 71, 0
2, 77040, Note_on_c, 0, 72, 45
2, 77280, Note_on_c, 0, 72, 0
2, 77400, Note_on_c, 0, 64, 35
2, 77520, Note_on_c, 0, 64, 0
2, 77520, Note_on_c, 0, 76, 38
2, 77640, Note_on_c, 0, 76, 0
2, 77640, Note_on_c, 0, 75, 34
2, 77760, Note_on_c, 0, 75, 0
2, 77760, Note_on_c, 0, 76, 41
2, 77880, Note_on_c, 0, 76, 0
2, 77880, Note_on_c, 0, 75, 37
2, 78000, Note_on_c, 0, 75, 0
2, 78000, Note_on_c, 0, 76, 46
2, 78120, Note_on_c, 0, 76, 0
2, 78120, Note_on_c, 0, 71, 39
2, 78240, Note_on_c, 0, 71, 0
2, 78240, Note_on_c, 0, 74, 48
2, 78360, Note_on_c, 0, 74, 0
2, 78360, Note_on_c, 0, 72, 39
2, 78480, Note_on_c, 0, 72, 0
2, 78480, Note_on_c, 0, 69, 48
2, 78720, Note_on_c, 0, 69, 0
2, 78840, Note_on_c, 0, 60, 34
2, 78960, Note_on_c, 0, 60, 0
2, 78960, Note_on_c, 0, 64, 37
2, 79080, Note_on_c, 0, 64, 0
2, 79080, Note_on_c, 0, 69, 41
2, 79200, Note_on_c, 0, 69, 0
2, 79200, Note_on_c, 0, 71, 45
2, 79440, Note_on_c, 0, 71, 0
2, 79560, Note_on_c, 0, 64, 37
2, 79680, Note_on_c, 0, 64, 0
2, 79680, Note_on_c, 0, 72, 40
2, 79800, Note_on_c, 0, 72, 0
2, 79800, Note_on_c, 0, 71, 38
2, 79920, Note_on_c, 0, 71, 0
2, 79920, Note_on_c, 0, 69, 40
2, 80160, Note_on_c, 0, 69, 0
2, 80280, Note_on_c, 0, 71, 38
2, 80400, Note_on_c, 0, 71, 0
2, 80400, Note_on_c, 0, 72, 42
2, 80520, Note_on_c, 0, 72, 0
2, 80520, Note_on_c, 0, 74, 46
2, 80640, Note_on_c, 0, 74, 0
2, 80640, Note_on_c, 0, 76, 50
2, 81000, Note_on_c, 0, 76, 0
2, 81000, Note_on_c, 0, 67, 40
2, 81120, Note_on_c, 0, 67, 0
2, 81120, Note_on_c, 0, 77, 46
2, 81240, Note_on_c, 0, 77, 0
2, 81240, Note_on_c, 0, 76, 43
2, 81360, Note_on_c, 0, 76, 0
2, 81360, Note_on_c, 0, 74, 50
2, 81720, Note_on_c, 0, 74, 0
2, 81720, Note_on_c, 0, 65, 40
2, 81840, Note_on_c, 0, 65, 0
2, 81840, Note_on_c, 0, 76, 46
2, 81960, Note_on_c, 0, 76, 0
2, 81960, Note_on_c, 0, 74, 43
2, 82080, Note_on_c, 0, 74, 0
2, 82080, Note_on_c, 0, 72, 50
2, 82440, Note_on_c, 0, 72, 0
2, 82440, Note_on_c, 0, 64, 40
2, 82560, Note_on_c, 0, 64, 0
2, 82560, Note_on_c, 0, 74, 46
2, 82680, Note_on_c, 0, 74, 0
2, 82680, Note_on_c, 0, 72, 43
2, 82800, Note_on_c, 0, 72, 0
2, 82800, Note_on_c, 0, 71, 50
2, 83040, Note_on_c, 0, 71, 0
2, 83160, Note_on_c, 0, 64, 39
2, 83280, Note_on_c, 0, 64, 0
2, 83280, Note_on_c, 0, 76, 45
2, 83400, Note_on_c, 0, 76, 0
2, 83640, Note_on_c, 0, 76, 43
2, 83760, Note_on_c, 0, 76, 0
2, 83760, Note_on_c, 0, 88, 48
2, 83880, Note_on_c, 0, 88, 0
2, 84120, Note_on_c, 0, 75, 42
2, 84240, Note_on_c, 0, 75, 0
2, 84240, Note_on_c, 0, 76, 48
2, 84360, Note_on_c, 0, 76, 0
2, 84600, Note_on_c, 0, 75, 35
2, 84720, Note_on_c, 0, 75, 0
2, 84720, Note_on_c, 0, 76, 37
2, 84840, Note_on_c, 0, 76, 0
2, 84840, Note_on_c, 0, 75, 34
2, 84960, Note_on_c, 0, 75, 0
2, 84960, Note_on_c, 0, 76, 40
2, 85080, Note_on_c, 0, 76, 0
2, 85080, Note_on_c, 0, 75, 36
2, 85200, Note_on_c, 0, 75, 0
2, 85200, Note_on_c, 0, 76, 42
2, 85320, Note_on_c, 0, 76, 0
2, 85320, Note_on_c, 0, 71, 36
2, 85440, Note_on_c, 0, 71, 0
2, 85440, Note_on_c, 0, 74, 43
2, 85560, Note_on_c, 0, 74, 0
2, 85560, Note_on_c, 0, 72, 35
2, 85680, Note_on_c, 0, 72, 0
2, 85680, Note_on_c, 0, 69, 48
2, 85920, Note_on_c, 0, 69, 0
2, 86040, Note_on_c, 0, 60, 34
2, 86160, Note_on_c, 0, 60, 0
2, 86160, Note_on_c, 0, 64, 38
2, 86280, Note_on_c, 0, 64, 0
2, 86280, Note_on_c, 0, 69, 42
2, 86400, Note_on_c, 0, 69, 0
2, 86400, Note_on_c, 0, 71, 46
2, 86640, Note_on_c, 0, 71, 0
2, 86760, Note_on_c, 0, 64, 36
2, 86880, Note_on_c, 0, 64, 0
2, 86880, Note_on_c, 0, 68, 39
2, 87000, Note_on_c, 0, 68, 0
2, 87000, Note_on_c, 0, 71, 42
2, 87120, Note_on_c, 0, 71, 0
2, 87120, Note_on_c, 0, 72, 45
2, 87360, Note_on_c, 0, 72, 0
2, 87480, Note_on_c, 0, 64, 35
2, 87600, Note_on_c, 0, 64, 0
2, 87600, Note_on_c, 0, 76, 38
2, 87720, Note_on_c, 0, 76, 0
2, 87720, Note_on_c, 0, 75, 34
2, 87840, Note_on_c, 0, 75, 0
2, 87840, Note_on_c, 0, 76, 41
2, 87960, Note_on_c, 0, 76, 0
2, 87960, Note_on_c, 0, 75, 37
2, 88080, Note_on_c, 0, 75, 0
2, 88080, Note_on_c, 0, 76, 46
2, 88200, Note_on_c, 0, 76, 0
2, 88200, Note_on_c, 0, 71, 39
2, 88320, Note_on_c, 0, 71, 0
2, 88320, Note_on_c, 0, 74, 48
2, 88440, Note_on_c, 0, 74, 0
2, 88440, Note_on_c, 0, 72, 39
2, 88560, Note_on_c, 0, 72, 0
2, 88560, Note_on_c, 0, 69, 48
2, 88800, Note_on_c, 0, 69, 0
2, 88920, Note_on_c, 0, 60, 34
2, 89040, Note_on_c, 0, 60, 0
2, 89040, Note_on_c, 0, 64, 37
2, 89160, Note_on_c, 0, 64, 0
2, 89160, Note_on_c, 0, 69, 41
2, 89280, Note_on_c, 0, 69, 0
2, 89280, Note_on_c, 0, 71, 45
2, 89520, Note_on_c, 0, 71, 0
2, 89640, Note_on_c, 0, 64, 37
2, 89760, Note_on_c, 0, 64, 0
2, 89760, Note_on_c, 0, 72, 40
2, 89880, Note_on_c, 0, 72, 0
2, 89880, Note_on_c, 0, 71, 38
2, 90000, Note_on_c, 0, 71, 0
2, 90000, Note_on_c, 0, 69, 36
2, 90240, Note_on_c, 0, 69, 0
2, 90240, End_track
0, 0, End_of_file